<svg width="210" height="40" viewBox="0 0 210 40" fill="none" xmlns="http://www.w3.org/2000/svg">
<rect width="210" height="40" fill="#363636"/>
<path d="M33.9292 10.6488V26.41H32.1212V17.209H21.8462V24.1715C21.8462 27.0951 24.2966 29.469 27.3194 29.469H40.959C42.6599 29.469 44.0395 28.1347 44.0395 26.4897V8H36.6678C35.1564 8 33.9292 9.18697 33.9292 10.6488Z" fill="#0DCC5A"/>
<path d="M79.6334 15.5361C76.2565 15.5361 73.6908 18.153 73.6908 21.4191C73.6908 24.6853 76.2565 27.3699 79.6334 27.3699C83.0104 27.3699 85.7491 24.7212 85.7491 21.455C85.7491 18.1848 83.0104 15.5361 79.6334 15.5361ZM79.6334 24.6415C77.8091 24.6415 76.3347 23.2116 76.3347 21.451C76.3347 19.6865 77.8132 18.2605 79.6334 18.2605C81.4578 18.2605 82.9322 19.6905 82.9322 21.451C82.9363 23.2155 81.4578 24.6415 79.6334 24.6415Z" fill="white"/>
<path d="M172.228 17.0934V15.6914H169.411V27.2146H172.232V21.3355C172.232 20.2879 172.5 17.9458 175.235 18.1012V18.0972V15.5281C173.925 15.6237 172.957 16.1534 172.228 17.0934Z" fill="white"/>
<path d="M134.073 15.532C130.696 15.532 127.957 18.1808 127.957 21.447C127.957 24.7131 130.696 27.3619 134.073 27.3619C137.45 27.3619 140.188 24.7131 140.188 21.447C140.188 18.1808 137.45 15.532 134.073 15.532ZM134.073 24.6215C132.261 24.6215 130.791 23.1996 130.791 21.447C130.791 19.6944 132.261 18.2724 134.073 18.2724C135.885 18.2724 137.355 19.6944 137.355 21.447C137.355 23.1996 135.885 24.6215 134.073 24.6215Z" fill="white"/>
<path d="M167.134 15.6914H164.309V16.727C163.362 15.9583 162.262 15.5361 160.796 15.5361C157.419 15.5361 154.619 18.1848 154.619 21.451C154.619 24.7172 157.394 27.3659 160.771 27.3659C162.575 27.3659 163.745 26.5932 164.309 25.8643V27.2106H167.134V15.6914ZM160.883 24.749C158.988 24.749 157.448 23.2633 157.448 21.4271C157.448 19.5949 158.984 18.1052 160.883 18.1052C162.777 18.1052 164.317 19.5909 164.317 21.4271C164.313 23.2593 162.777 24.749 160.883 24.749Z" fill="white"/>
<path d="M188.154 15.6914H185.329V16.727C184.381 15.9583 183.282 15.5361 181.816 15.5361C178.439 15.5361 175.638 18.1848 175.638 21.451C175.638 24.7172 178.414 27.3659 181.791 27.3659C183.595 27.3659 184.764 26.5932 185.329 25.8643V27.2106H188.154V15.6914ZM181.898 24.749C180.004 24.749 178.463 23.2633 178.463 21.4271C178.463 19.5909 180 18.1052 181.898 18.1052C183.792 18.1052 185.333 19.5909 185.333 21.4271C185.333 23.2633 183.797 24.749 181.898 24.749Z" fill="white"/>
<path d="M66.3356 15.5364C62.9586 15.5364 60.22 18.1852 60.22 21.4514C60.22 24.7175 62.9586 27.3663 66.3356 27.3663C69.7126 27.3663 72.4512 24.7175 72.4512 21.4514C72.4512 18.1852 69.7126 15.5364 66.3356 15.5364ZM66.3397 24.6419C64.5153 24.6419 63.041 23.2119 63.041 21.4514C63.041 19.6869 64.5194 18.2609 66.3397 18.2609C68.16 18.2609 69.6384 19.6908 69.6384 21.4514C69.6384 23.2159 68.16 24.6419 66.3397 24.6419Z" fill="white"/>
<path d="M95.6081 27.2146V20.6942C95.6081 19.6706 95.1181 18.2287 93.2896 18.1251C90.5633 17.9698 90.2956 20.3039 90.2956 21.3475V27.2146H87.4705V15.6914H90.2873V17.1174C91.0904 16.0858 92.1776 15.5401 93.6973 15.5401C93.6973 15.5401 98.4291 15.4086 98.4291 20.3119C98.4291 25.2151 98.4291 27.2106 98.4291 27.2106H95.6081V27.2146Z" fill="white"/>
<path d="M150.052 27.2146V20.6942C150.052 19.6706 149.561 18.2287 147.733 18.1251C145.007 17.9698 144.739 20.3039 144.739 21.3475V27.2146H141.914V15.6914H144.731V17.1174C145.534 16.0858 146.621 15.5401 148.141 15.5401C148.141 15.5401 152.873 15.4086 152.873 20.3119C152.873 25.2151 152.873 27.2106 152.873 27.2106H150.052V27.2146Z" fill="white"/>
<path d="M109.511 21.2201C109.511 22.9687 108.045 24.3867 106.237 24.3867C104.429 24.3867 102.963 22.9687 102.963 21.2201C102.963 19.4715 104.429 18.0535 106.237 18.0535C108.049 18.0535 109.511 19.4715 109.511 21.2201ZM103.861 27.9794H100.756C100.756 27.9794 101.645 32.0223 106.501 32.0223C110.31 32.0223 112.324 29.8595 112.324 26.3225V15.6915H109.507V16.6833C108.667 16.0022 107.703 15.6039 106.456 15.5441C103.618 15.4047 101.028 17.1294 100.34 19.7981C99.3681 23.5741 102.346 26.9518 106.089 26.9518C107.835 26.9518 108.964 26.199 109.507 25.4979C109.507 25.4979 110.17 28.9274 107.522 29.6205C106.089 29.9949 104.45 29.5129 103.861 27.9794Z" fill="white"/>
<path d="M123.406 21.2201C123.406 22.9687 121.94 24.3867 120.132 24.3867C118.325 24.3867 116.858 22.9687 116.858 21.2201C116.858 19.4715 118.325 18.0535 120.132 18.0535C121.945 18.0535 123.406 19.4715 123.406 21.2201ZM117.756 27.9794H114.651C114.651 27.9794 115.541 32.0223 120.396 32.0223C124.205 32.0223 126.219 29.8595 126.219 26.3225V15.6915H123.402V16.6833C122.562 16.0022 121.599 15.6039 120.351 15.5441C117.513 15.4047 114.923 17.1294 114.235 19.7981C113.263 23.5741 116.241 26.9518 119.984 26.9518C121.73 26.9518 122.859 26.199 123.402 25.4979C123.402 25.4979 124.065 28.9274 121.417 29.6205C119.984 29.9949 118.345 29.5129 117.756 27.9794Z" fill="white"/>
<path d="M55.6693 10.2545V20.8177C55.6693 22.8411 53.9726 24.4822 51.8805 24.4822H50.3773V27.2146H51.9587C55.5663 27.2146 58.4944 24.3866 58.4944 20.8934V10.2545H55.6693Z" fill="white"/>
</svg>
